<?xml version="1.0" encoding="utf-8"?>
<!-- Generator: Adobe Illustrator 21.0.2, SVG Export Plug-In . SVG Version: 6.00 Build 0)  -->
<svg version="1.1" id="レイヤー_1" xmlns="http://www.w3.org/2000/svg" xmlns:xlink="http://www.w3.org/1999/xlink" x="0px"
	 y="0px" viewBox="0 0 18 18" style="enable-background:new 0 0 18 18;" xml:space="preserve">
<style type="text/css">
	.st0{fill:none;}
	.st1{fill:#FFFFFF;}
	.st2{fill:#0180FF;}
</style>
<path class="st0" d="M-3-3h24v24H-3V-3z"/>
<g>
	<polygon class="st1" points="7,11.2 3.4,7.6 2,9 7,14 16,5 14.6,3.6 	"/>
	<path class="st2" d="M16,0H2C0.9,0,0,0.9,0,2v14c0,1.1,0.9,2,2,2h14c1.1,0,2-0.9,2-2V2C18,0.9,17.1,0,16,0z M7,14L2,9l1.4-1.4
		L7,11.2l7.6-7.6L16,5L7,14z"/>
</g>
</svg>
