<?xml version="1.0" encoding="utf-8"?>
<!-- Generator: Adobe Illustrator 21.0.2, SVG Export Plug-In . SVG Version: 6.00 Build 0)  -->
<svg version="1.1" id="レイヤー_1" xmlns="http://www.w3.org/2000/svg" xmlns:xlink="http://www.w3.org/1999/xlink" x="0px"
	 y="0px" viewBox="0 0 16 4" style="enable-background:new 0 0 16 4;" xml:space="preserve">
<style type="text/css">
	.st0{fill:none;}
	.st1{fill:#ABB2BD;}
</style>
<path class="st0" d="M-4-10h24v24H-4V-10z"/>
<path class="st1" d="M2,0C0.9,0,0,0.9,0,2s0.9,2,2,2s2-0.9,2-2S3.1,0,2,0z M14,0c-1.1,0-2,0.9-2,2s0.9,2,2,2s2-0.9,2-2S15.1,0,14,0z
	 M8,0C6.9,0,6,0.9,6,2s0.9,2,2,2s2-0.9,2-2S9.1,0,8,0z"/>
</svg>
