<?xml version="1.0" encoding="utf-8"?>
<!-- Generator: Adobe Illustrator 21.0.2, SVG Export Plug-In . SVG Version: 6.00 Build 0)  -->
<svg version="1.1" id="レイヤー_1" xmlns="http://www.w3.org/2000/svg" xmlns:xlink="http://www.w3.org/1999/xlink" x="0px"
	 y="0px" viewBox="0 0 16 16" style="enable-background:new 0 0 16 16;" xml:space="preserve">
<style type="text/css">
	.st0{fill:#FFFFFF;}
	.st1{fill:none;}
</style>
<path class="st0" d="M8,1.9c1.2,0,2.1,0.9,2.1,2.1S9.2,6.1,8,6.1S5.9,5.2,5.9,4S6.8,1.9,8,1.9 M8,10.9c3,0,6.1,1.5,6.1,2.1v1.1H1.9
	V13C1.9,12.4,5,10.9,8,10.9 M8,0C5.8,0,4,1.8,4,4s1.8,4,4,4s4-1.8,4-4S10.2,0,8,0z M8,9c-2.7,0-8,1.3-8,4v3h16v-3
	C16,10.3,10.7,9,8,9z"/>
<path class="st1" d="M-4-4h24v24H-4V-4z"/>
</svg>
