<?xml version="1.0" encoding="utf-8"?>
<!-- Generator: Adobe Illustrator 21.0.2, SVG Export Plug-In . SVG Version: 6.00 Build 0)  -->
<svg version="1.1" id="レイヤー_1" xmlns="http://www.w3.org/2000/svg" xmlns:xlink="http://www.w3.org/1999/xlink" x="0px"
	 y="0px" viewBox="0 0 124.7 124.7" style="enable-background:new 0 0 124.7 124.7;" xml:space="preserve">
<style type="text/css">
	.st0{fill:#0D6FFC;}
	.st1{fill:#FFFFFF;}
</style>
<path class="st0" d="M124.7,62.1L124.7,62.1c-0.1-25.4-6.7-38.7-11.9-45.3c-0.5-0.7-1.2-1.6-2.3-2.6c-1-1-1.9-1.8-2.6-2.3
	C101.3,6.7,88,0.1,62.6,0l0,0c-0.1,0-0.2,0-0.2,0h-0.2l0,0C36.3,0.1,22.9,7,16.5,12.2c-0.7,0.5-1.5,1.3-2.5,2.2
	c-0.6,0.6-1.1,1.2-1.5,1.6C7.2,22.3,0.1,35.7,0,62.1l0,0c0,0.1,0,0.2,0,0.2v0.2l0,0c0.1,25.4,6.7,38.8,11.9,45.3
	c0.5,0.7,1.2,1.6,2.3,2.6c1,1,1.9,1.8,2.6,2.3c6.6,5.2,19.9,11.8,45.3,11.9l0,0c0.1,0,0.2,0,0.2,0h0.2l0,0
	c25.9-0.1,39.3-7,45.7-12.2c0.7-0.5,1.5-1.3,2.5-2.2c0.6-0.6,1.1-1.2,1.5-1.6c5.3-6.3,12.4-19.7,12.5-46.1l0,0c0-0.1,0-0.2,0-0.2
	S124.7,62.2,124.7,62.1z M0,62.4L0,62.4L0,62.4L0,62.4L0,62.4z M61.4,124.4l0.9,0.3l0,0L61.4,124.4z"/>
<g>
	<path class="st1" d="M60.9,80.4H42.8c-2.2,0-4-1.8-4-4l0,0c0-2.2,1.8-4,4-4h18.1c2.2,0,4,1.8,4,4l0,0
		C64.9,78.6,63.1,80.4,60.9,80.4z"/>
	<path class="st1" d="M81.7,80.4h-8.1c-2.2,0-4-1.8-4-4l0,0c0-2.2,1.8-4,4-4h8.1c2.2,0,4,1.8,4,4l0,0C85.7,78.6,83.9,80.4,81.7,80.4
		z"/>
	<path class="st1" d="M60.9,52.4H42.8c-2.2,0-4-1.8-4-4l0,0c0-2.2,1.8-4,4-4h18.1c2.2,0,4,1.8,4,4l0,0
		C64.9,50.6,63.1,52.4,60.9,52.4z"/>
	<path class="st1" d="M81.7,52.4h-8.1c-2.2,0-4-1.8-4-4l0,0c0-2.2,1.8-4,4-4h8.1c2.2,0,4,1.8,4,4l0,0C85.7,50.6,83.9,52.4,81.7,52.4
		z"/>
	<path class="st1" d="M81.7,66.4H64.9c-2.2,0-4-1.8-4-4l0,0c0-2.2,1.8-4,4-4h16.8c2.2,0,4,1.8,4,4l0,0
		C85.7,64.6,83.9,66.4,81.7,66.4z"/>
	<path class="st1" d="M50.2,66.4h-7.4c-2.2,0-4-1.8-4-4l0,0c0-2.2,1.8-4,4-4h7.4c2.2,0,4,1.8,4,4l0,0C54.2,64.6,52.4,66.4,50.2,66.4
		z"/>
</g>
</svg>
